<mxfile host="Electron" modified="2023-11-16T14:09:09.177Z" agent="Mozilla/5.0 (Windows NT 10.0; Win64; x64) AppleWebKit/537.36 (KHTML, like Gecko) draw.io/22.0.3 Chrome/114.0.5735.289 Electron/25.8.4 Safari/537.36" etag="9XJfi5Sxq5ZDMGCYmIXM" version="22.0.3" type="device">
  <diagram name="페이지-1" id="SLTncGQBv6yvB4Gwt0dM">
    <mxGraphModel dx="954" dy="657" grid="1" gridSize="10" guides="1" tooltips="1" connect="1" arrows="1" fold="1" page="1" pageScale="1" pageWidth="1169" pageHeight="827" math="0" shadow="0">
      <root>
        <mxCell id="0" />
        <mxCell id="1" parent="0" />
        <mxCell id="xHcOPgm7-dVLdEI-tk_2-1" value="docker swram" style="swimlane;whiteSpace=wrap;html=1;" vertex="1" parent="1">
          <mxGeometry x="30" y="20" width="280" height="260" as="geometry" />
        </mxCell>
        <mxCell id="xHcOPgm7-dVLdEI-tk_2-2" value="worker&lt;br&gt;node&lt;br&gt;(instance)" style="ellipse;whiteSpace=wrap;html=1;aspect=fixed;" vertex="1" parent="xHcOPgm7-dVLdEI-tk_2-1">
          <mxGeometry x="18" y="46" width="80" height="80" as="geometry" />
        </mxCell>
        <mxCell id="xHcOPgm7-dVLdEI-tk_2-3" value="worker&lt;br&gt;node" style="ellipse;whiteSpace=wrap;html=1;aspect=fixed;" vertex="1" parent="xHcOPgm7-dVLdEI-tk_2-1">
          <mxGeometry x="18" y="155" width="80" height="80" as="geometry" />
        </mxCell>
        <mxCell id="xHcOPgm7-dVLdEI-tk_2-6" value="manager&lt;br&gt;node" style="ellipse;whiteSpace=wrap;html=1;aspect=fixed;" vertex="1" parent="xHcOPgm7-dVLdEI-tk_2-1">
          <mxGeometry x="184" y="100" width="80" height="80" as="geometry" />
        </mxCell>
        <mxCell id="xHcOPgm7-dVLdEI-tk_2-39" value="connect with manager IP address" style="text;html=1;strokeColor=none;fillColor=none;align=center;verticalAlign=middle;whiteSpace=wrap;rounded=0;" vertex="1" parent="xHcOPgm7-dVLdEI-tk_2-1">
          <mxGeometry x="130" y="200" width="125" height="30" as="geometry" />
        </mxCell>
        <mxCell id="xHcOPgm7-dVLdEI-tk_2-8" value="cluster" style="swimlane;whiteSpace=wrap;html=1;" vertex="1" parent="1">
          <mxGeometry x="490" y="170" width="550" height="460" as="geometry" />
        </mxCell>
        <mxCell id="xHcOPgm7-dVLdEI-tk_2-25" value="service" style="swimlane;whiteSpace=wrap;html=1;" vertex="1" parent="xHcOPgm7-dVLdEI-tk_2-8">
          <mxGeometry x="40" y="40" width="210" height="400" as="geometry" />
        </mxCell>
        <mxCell id="xHcOPgm7-dVLdEI-tk_2-75" value="task/container" style="swimlane;whiteSpace=wrap;html=1;" vertex="1" parent="xHcOPgm7-dVLdEI-tk_2-25">
          <mxGeometry x="40" y="44" width="130" height="150" as="geometry" />
        </mxCell>
        <mxCell id="xHcOPgm7-dVLdEI-tk_2-26" value="command" style="rounded=0;whiteSpace=wrap;html=1;" vertex="1" parent="xHcOPgm7-dVLdEI-tk_2-75">
          <mxGeometry x="26.5" y="39" width="75" height="30" as="geometry" />
        </mxCell>
        <mxCell id="xHcOPgm7-dVLdEI-tk_2-9" value="docker&lt;br&gt;image" style="ellipse;whiteSpace=wrap;html=1;aspect=fixed;" vertex="1" parent="xHcOPgm7-dVLdEI-tk_2-75">
          <mxGeometry x="35" y="78" width="60" height="60" as="geometry" />
        </mxCell>
        <mxCell id="xHcOPgm7-dVLdEI-tk_2-76" value="task/container" style="swimlane;whiteSpace=wrap;html=1;" vertex="1" parent="xHcOPgm7-dVLdEI-tk_2-25">
          <mxGeometry x="39" y="224" width="130" height="150" as="geometry" />
        </mxCell>
        <mxCell id="xHcOPgm7-dVLdEI-tk_2-77" value="command" style="rounded=0;whiteSpace=wrap;html=1;" vertex="1" parent="xHcOPgm7-dVLdEI-tk_2-76">
          <mxGeometry x="26.5" y="39" width="75" height="30" as="geometry" />
        </mxCell>
        <mxCell id="xHcOPgm7-dVLdEI-tk_2-78" value="docker&lt;br&gt;image" style="ellipse;whiteSpace=wrap;html=1;aspect=fixed;" vertex="1" parent="xHcOPgm7-dVLdEI-tk_2-76">
          <mxGeometry x="35" y="78" width="60" height="60" as="geometry" />
        </mxCell>
        <mxCell id="xHcOPgm7-dVLdEI-tk_2-79" value="service" style="swimlane;whiteSpace=wrap;html=1;" vertex="1" parent="xHcOPgm7-dVLdEI-tk_2-8">
          <mxGeometry x="290" y="40" width="210" height="400" as="geometry" />
        </mxCell>
        <mxCell id="xHcOPgm7-dVLdEI-tk_2-80" value="task/container" style="swimlane;whiteSpace=wrap;html=1;" vertex="1" parent="xHcOPgm7-dVLdEI-tk_2-79">
          <mxGeometry x="40" y="44" width="130" height="150" as="geometry" />
        </mxCell>
        <mxCell id="xHcOPgm7-dVLdEI-tk_2-81" value="command" style="rounded=0;whiteSpace=wrap;html=1;" vertex="1" parent="xHcOPgm7-dVLdEI-tk_2-80">
          <mxGeometry x="26.5" y="39" width="75" height="30" as="geometry" />
        </mxCell>
        <mxCell id="xHcOPgm7-dVLdEI-tk_2-82" value="docker&lt;br&gt;image" style="ellipse;whiteSpace=wrap;html=1;aspect=fixed;" vertex="1" parent="xHcOPgm7-dVLdEI-tk_2-80">
          <mxGeometry x="35" y="78" width="60" height="60" as="geometry" />
        </mxCell>
        <mxCell id="xHcOPgm7-dVLdEI-tk_2-83" value="task/container" style="swimlane;whiteSpace=wrap;html=1;" vertex="1" parent="xHcOPgm7-dVLdEI-tk_2-79">
          <mxGeometry x="39" y="224" width="130" height="150" as="geometry" />
        </mxCell>
        <mxCell id="xHcOPgm7-dVLdEI-tk_2-84" value="command" style="rounded=0;whiteSpace=wrap;html=1;" vertex="1" parent="xHcOPgm7-dVLdEI-tk_2-83">
          <mxGeometry x="26.5" y="39" width="75" height="30" as="geometry" />
        </mxCell>
        <mxCell id="xHcOPgm7-dVLdEI-tk_2-85" value="docker&lt;br&gt;image" style="ellipse;whiteSpace=wrap;html=1;aspect=fixed;" vertex="1" parent="xHcOPgm7-dVLdEI-tk_2-83">
          <mxGeometry x="35" y="78" width="60" height="60" as="geometry" />
        </mxCell>
        <mxCell id="xHcOPgm7-dVLdEI-tk_2-16" style="edgeStyle=orthogonalEdgeStyle;rounded=0;orthogonalLoop=1;jettySize=auto;html=1;" edge="1" parent="1" source="xHcOPgm7-dVLdEI-tk_2-12">
          <mxGeometry relative="1" as="geometry">
            <mxPoint x="210" y="451" as="targetPoint" />
          </mxGeometry>
        </mxCell>
        <mxCell id="xHcOPgm7-dVLdEI-tk_2-12" value="client" style="whiteSpace=wrap;html=1;aspect=fixed;" vertex="1" parent="1">
          <mxGeometry x="30" y="411" width="80" height="80" as="geometry" />
        </mxCell>
        <mxCell id="xHcOPgm7-dVLdEI-tk_2-18" style="edgeStyle=orthogonalEdgeStyle;rounded=0;orthogonalLoop=1;jettySize=auto;html=1;" edge="1" parent="1">
          <mxGeometry relative="1" as="geometry">
            <mxPoint x="480" y="450.9999999999998" as="targetPoint" />
            <mxPoint x="379" y="451" as="sourcePoint" />
          </mxGeometry>
        </mxCell>
        <mxCell id="xHcOPgm7-dVLdEI-tk_2-17" value="request" style="text;html=1;strokeColor=none;fillColor=none;align=center;verticalAlign=middle;whiteSpace=wrap;rounded=0;" vertex="1" parent="1">
          <mxGeometry x="138" y="459" width="50" height="30" as="geometry" />
        </mxCell>
        <mxCell id="xHcOPgm7-dVLdEI-tk_2-19" value="routing" style="text;html=1;strokeColor=none;fillColor=none;align=center;verticalAlign=middle;whiteSpace=wrap;rounded=0;" vertex="1" parent="1">
          <mxGeometry x="413" y="460" width="50" height="30" as="geometry" />
        </mxCell>
        <mxCell id="xHcOPgm7-dVLdEI-tk_2-36" value="ingress load balancer" style="swimlane;whiteSpace=wrap;html=1;" vertex="1" parent="1">
          <mxGeometry x="220" y="371" width="180" height="159" as="geometry" />
        </mxCell>
        <mxCell id="xHcOPgm7-dVLdEI-tk_2-37" value="expose&lt;br&gt;services outside" style="rounded=0;whiteSpace=wrap;html=1;" vertex="1" parent="xHcOPgm7-dVLdEI-tk_2-36">
          <mxGeometry x="30" y="57" width="120" height="60" as="geometry" />
        </mxCell>
        <mxCell id="xHcOPgm7-dVLdEI-tk_2-41" value="" style="endArrow=classic;html=1;rounded=0;" edge="1" parent="1">
          <mxGeometry width="50" height="50" relative="1" as="geometry">
            <mxPoint x="150" y="120" as="sourcePoint" />
            <mxPoint x="200" y="150" as="targetPoint" />
          </mxGeometry>
        </mxCell>
        <mxCell id="xHcOPgm7-dVLdEI-tk_2-42" value="" style="endArrow=classic;html=1;rounded=0;" edge="1" parent="1">
          <mxGeometry width="50" height="50" relative="1" as="geometry">
            <mxPoint x="150" y="210" as="sourcePoint" />
            <mxPoint x="210" y="180" as="targetPoint" />
          </mxGeometry>
        </mxCell>
      </root>
    </mxGraphModel>
  </diagram>
</mxfile>
